<?xml version="1.0" encoding="UTF-8"?>
<svg id="Layer_1" xmlns="http://www.w3.org/2000/svg" version="1.1" viewBox="0 0 289.4 120.4">
  <!-- Generator: Adobe Illustrator 29.6.1, SVG Export Plug-In . SVG Version: 2.1.1 Build 9)  -->
  <defs>
    <style>
      .st0 {
        fill: #fff;
      }
    </style>
  </defs>
  <circle cx="239.2" cy="65" r="50.1"/>
  <path d="M16.9,34.3C37.4,20.7,75.5,2.8,92.7.3c17.1-2.3,21,8.1,9.8,17.8-9.7,8.3-22.6,20.4-35.7,33.2,14.1-3.1,28.2-5.8,36-5.8s4.8,6.3-.2,6.3-24.1,3.1-43.3,7c-23.5,23.3-46.2,47.7-52.6,57.9-6.2,9.8-9.6-2.4-3.5-8.9,20.7-22.4,29.3-41.9,20.2-38.9-3.4,1.2-2.1-5.1,1.4-6.5,2.6-1,16.1-4.8,31.5-8.6C86.4,25.1,107.2,10,103.7,5.7,98.8.1,44.6,20.1,16.7,42.3c-3.6,2.9-5.7-4.2.1-8h0ZM24,87.5c8.7-9.8,17.4-18.7,25.4-26.7-7.9,1.7-15.4,3.4-21.2,5,4.4,1.1,4.9,8.4-4.2,21.7h0Z"/>
  <path d="M76.5,83.3c7.1-2.2,30.4-17.2,35.1-21,4.6-3.7,5,2.4,2.7,5.1-2,2.6-13.8,13.9-11.5,15.5,2.4,1.7,23.3-15,30-20.3,6.8-5.3,8.2-6-.8,2.8-9.2,8.9-24.1,22.9-29.1,22.9s-7-2.6-6.4-7.2c.2-2.2,3-5.8,5.6-8.3-9.3,7.2-22.9,16.1-26.9,17.2-3.8,1.1-6.7-5.1-2.7-11.3,6.8-10.9,36-29.4,47.8-30.8,4.2-.5,7.7,3.6,7,6.2-.9,2.8-4.6,4.1-4.5.5-11.2-.7-38,16.6-46.3,28.7h0Z"/>
  <path d="M161,49.3c4.6-.2,7.6,2.9,5.6,7.2-2.4,4.9-7.1,10.5-12.6,15.7,5.4,0,14.5-2.9,22.5-10,6.9-6.3,2.4,0-3.9,6-9.3,8.6-17.5,10-22.4,7.4-8.6,7.3-18.1,13.2-23.7,14-7.9,1-11.4-6.1-7-12.7,7.7-11.9,60.3-57.5,75.2-65.6,9.7-5.3,12.1,3.5,6.2,10.2-6.1,6.7-23.4,17.8-40,27.7h0ZM146.3,71.8c-2.3-4-1.8-10.1,3-15.7l-6.8,3.8c-11.9,11-20.6,20.6-19.3,23.4,1.7,4.1,13.1-3,23.1-11.6h0ZM198.1,15.8c-4.2,1.5-26.1,18.2-45.2,34.8,30.4-18.1,52.1-37.2,45.2-34.8ZM161.5,53.5c-.3-2.7-13,9.3-12.4,15.8,7-6.4,12.6-12.9,12.4-15.8Z"/>
  <circle cx="179.5" cy="76.2" r="5.7"/>
  <g>
    <path class="st0" d="M229.7,54.9c-1.6,3-25.1,22.5-23.7,24.4,1.8,2.7,23.3-11.2,32.3-18.2,7.5-5.9-.1,2.8-14.6,13.8-5,3.8-14.9,10.1-16.8,10.2-5.1.4-6.5-4.2-5-8.9,1.5-4.6,18.6-19.9,24.9-25.5,1.6-1.6,4.4,1.4,2.8,4.2h.1ZM245.2,32.2c4.9-3.1,10.2-2.6,8.2,2.2-2.1,4.8-14,11.4-15.9,10-1.9-1.5,4.2-9.9,7.6-12.2h0Z"/>
    <path class="st0" d="M236.7,64.5c-.7-1.8-.5-3.9,1.2-6,5.1-5.9,16.5-10.6,22.4-11.3,6.8-.7,10.2,7.5,6.7,13.5-.3.6-.7,1.1-.9,1.6,7-1.6,13.4-3.2,15.8-4,6.4-2.1,1.3,2-12.3,6.2-2,.7-4.3,1.4-6.5,1.9-9,11.2-24,21.3-32.2,23.1-5.7,1.3-11.3-4.7-7.2-12.1,2-3.5,6.7-8.3,13.1-12.9h-.1ZM254.3,68.1c-3.8.6-7.4,1-10.4,1s-3-.4-4.2-1.1c-7.4,5.4-13.5,11.7-12.7,14.6,1.3,5.4,16.8-4.2,27.4-14.5h-.1ZM252.3,55.7c4.6-2.1,6.9,2.9,3.7,3.6-3.5.9-7.9,3-12.1,5.7,3.3.5,8.6,0,14.3-1.1,3.6-4.2,6-8.1,5.8-10.9-.4-4.8-20.9,2.5-23.2,8.7,3.5-2.2,7.3-4.2,11.5-6.1h0Z"/>
  </g>
</svg>