<?xml version="1.0" encoding="UTF-8"?>
<svg id="Layer_1" xmlns="http://www.w3.org/2000/svg" version="1.1" viewBox="0 0 107 128">
  <!-- Generator: Adobe Illustrator 29.6.1, SVG Export Plug-In . SVG Version: 2.1.1 Build 9)  -->
  <defs>
    <style>
      .st0 {
        fill: #fff;
      }

      .st1 {
        fill: #2d2624;
      }
    </style>
  </defs>
  <circle class="st1" cx="53.2" cy="62.5" r="52.4"/>
  <g>
    <path class="st0" d="M22.6,50.5c9-6,25.8-13.9,33.4-14.9,7.5-1,9.2,3.6,4.3,7.9-4.3,3.7-9.9,9-15.7,14.6,6.2-1.4,12.4-2.5,15.8-2.5s2.1,2.8,0,2.8-10.6,1.4-19.1,3.1c-10.3,10.3-20.3,21-23.2,25.5-2.7,4.3-4.2-1.1-1.5-3.9,9.1-9.9,12.9-18.4,8.9-17.1-1.5.5-.9-2.2.6-2.8,1.1-.4,7.1-2.1,13.9-3.8,13.2-12.6,22.3-19.3,20.8-21.2-2.2-2.5-26.1,6.3-38.3,16.1-1.6,1.3-2.5-1.9,0-3.5ZM25.7,73.9c3.8-4.3,7.7-8.2,11.2-11.7-3.5.7-6.8,1.5-9.4,2.2,1.9.5,2.1,3.7-1.8,9.5h0Z"/>
    <path class="st0" d="M95.5,45.1c0-2.7-14.3.8-31.1,10-6.4,3.5-10.8,7.7-10.9,10.2-.1,3,7,1.8,11.2,3.3,2.4.8,3.5,4.5,2.6,6-3.4,4.7-19.9,10.6-25,9.6-4.3-.8-2.6-5.3-1.4-6.3,1.1-1,3-1.6,4.7-1.8,2.5-.3,4,0,.8,1-1.8.5-4.7,2-4.5,3.2.6,3.4,22.3-4.3,23.8-7.4.9-2-9.1-1.5-11.8-3-2.7-1.5-2.7-6.4,1.3-10.9,6.6-7.2,31.1-18.5,39.7-18,3.4.2,3.5,3.8.8,6.7-5.2,5.7-26.9,14.6-33.2,13.7-1.2-.2-1.9-2.8.2-2.8,8.4,0,32.9-10.7,32.8-13.5h0Z"/>
  </g>
</svg>