<?xml version="1.0" encoding="UTF-8"?>
<svg id="Layer_1" data-name="Layer 1" xmlns="http://www.w3.org/2000/svg" viewBox="0 0 442.76 120.45">
  <defs>
    <style>
      .cls-1 {
        fill: #231f20;
      }
    </style>
  </defs>
  <path class="cls-1" d="M16.78,34.25C37.32,20.72,75.44,2.78,92.64.33c17.05-2.35,20.99,8.14,9.77,17.84-9.7,8.33-22.58,20.39-35.7,33.23,14.14-3.14,28.22-5.78,35.96-5.78,4.12,0,4.84,6.27-.15,6.27s-24.14,3.14-43.26,6.96c-23.49,23.33-46.18,47.74-52.57,57.93-6.18,9.8-9.56-2.45-3.51-8.92,20.75-22.45,29.28-41.86,20.24-38.92-3.38,1.18-2.15-5.1,1.44-6.47,2.59-.98,16.12-4.8,31.52-8.63C86.3,25.13,107.1,10.04,103.65,5.73,98.73.14,44.5,20.13,16.65,42.29c-3.65,2.94-5.66-4.21.13-8.04ZM23.89,87.48c8.73-9.8,17.37-18.72,25.38-26.66-7.86,1.67-15.38,3.43-21.23,5,4.42,1.08,4.86,8.43-4.16,21.66Z"/>
  <path class="cls-1" d="M76.45,83.26c7.05-2.16,30.44-17.15,35.05-20.98,4.56-3.73,5,2.35,2.74,5.1-1.97,2.55-13.79,13.92-11.5,15.49,2.43,1.67,23.3-15,29.98-20.29,6.78-5.29,8.23-5.98-.75,2.84-9.23,8.92-24.06,22.94-29.06,22.94-2.74,0-6.96-2.55-6.37-7.25.19-2.16,3.03-5.78,5.58-8.33-9.26,7.16-22.9,16.08-26.91,17.15-3.82,1.08-6.66-5.1-2.73-11.27,6.76-10.88,35.98-29.41,47.8-30.78,4.19-.49,7.74,3.63,6.96,6.18-.89,2.75-4.58,4.12-4.48.49-11.2-.69-37.97,16.57-46.3,28.72Z"/>
  <path class="cls-1" d="M160.9,49.25c4.62-.2,7.63,2.94,5.64,7.16-2.45,4.9-7.14,10.49-12.59,15.68,5.35-.1,14.53-2.94,22.46-10,6.92-6.27,2.45,0-3.92,5.98-9.27,8.63-17.46,10-22.36,7.45-8.58,7.35-18.13,13.23-23.65,14.02-7.88.98-11.42-6.08-6.99-12.65,7.68-11.86,60.3-57.54,75.23-65.58,9.72-5.29,12.11,3.53,6.16,10.19-6.05,6.67-23.36,17.84-39.98,27.74ZM146.17,71.79c-2.34-4.02-1.8-10.1,2.98-15.68l-6.77,3.82c-11.91,10.98-20.63,20.58-19.32,23.43,1.7,4.12,13.11-3.04,23.11-11.57ZM197.97,15.82c-4.23,1.47-26.12,18.23-45.17,34.8,30.38-18.13,52.13-37.15,45.17-34.8ZM161.36,53.46c-.28-2.74-12.97,9.31-12.35,15.78,6.97-6.37,12.58-12.94,12.35-15.78Z"/>
  <path class="cls-1" d="M191.44,54.93c-1.64,3.04-25.07,22.45-23.68,24.41,1.75,2.74,23.29-11.17,32.3-18.23,7.49-5.88-.11,2.75-14.62,13.82-5.01,3.82-14.87,10.1-16.78,10.19-5.11.39-6.54-4.21-4.98-8.92,1.51-4.61,18.59-19.9,24.94-25.49,1.63-1.57,4.36,1.37,2.82,4.21ZM206.97,32.19c4.93-3.14,10.25-2.65,8.24,2.16-2.1,4.8-13.99,11.37-15.89,10-1.85-1.47,4.17-9.9,7.65-12.15Z"/>
  <path class="cls-1" d="M198.41,64.54c-.71-1.76-.53-3.92,1.17-5.98,5.14-5.88,16.5-10.59,22.36-11.27,6.84-.69,10.23,7.55,6.71,13.53-.32.59-.68,1.08-.95,1.57,7.02-1.57,13.41-3.23,15.8-4.02,6.41-2.06,1.29,1.96-12.26,6.18-2.04.69-4.27,1.37-6.5,1.86-8.98,11.17-24.04,21.27-32.2,23.13-5.69,1.27-11.28-4.71-7.21-12.06,2-3.53,6.66-8.33,13.07-12.94ZM216.1,68.07c-3.75.59-7.39.98-10.43.98-1.52.1-3.02-.39-4.22-1.08-7.42,5.39-13.46,11.66-12.69,14.61,1.3,5.39,16.79-4.22,27.35-14.51ZM214.05,55.72c4.64-2.06,6.94,2.94,3.73,3.63-3.52.88-7.92,3.04-12.09,5.69,3.26.49,8.58-.1,14.31-1.08,3.65-4.21,5.96-8.14,5.78-10.88-.35-4.8-20.88,2.55-23.24,8.72,3.52-2.16,7.28-4.21,11.52-6.08Z"/>
  <path class="cls-1" d="M339.9,12.1c.05-6.08-32.47,1.86-70.61,22.74-14.63,8.04-24.42,17.45-24.85,23.13-.28,6.86,15.91,4.12,25.38,7.45,5.46,1.86,8.06,10.29,5.87,13.62-7.73,10.68-45.28,24.11-56.8,21.86-9.78-1.86-5.79-11.96-3.1-14.21,2.59-2.25,6.86-3.63,10.56-4.12,5.66-.69,9.16.1,1.82,2.25-4.07,1.18-10.67,4.51-10.24,7.16,1.46,7.65,50.58-9.8,54.05-16.76,2.14-4.51-20.65-3.33-26.83-6.76-6.18-3.43-6.22-14.61,3.01-24.8,14.92-16.37,70.6-41.95,90.16-40.78,7.68.49,7.98,8.63,1.83,15.29-11.74,12.84-61.13,33.13-75.31,31.07-2.77-.49-4.25-6.47.56-6.47,18.96.1,74.59-24.31,74.51-30.68Z"/>
  <path class="cls-1" d="M283.21,83.26c7.05-2.16,30.44-17.15,35.05-20.98,4.56-3.73,5,2.35,2.74,5.1-1.97,2.55-13.79,13.92-11.5,15.49,2.43,1.67,23.3-15,29.98-20.29,6.78-5.29,8.23-5.98-.75,2.84-9.23,8.92-24.06,22.94-29.06,22.94-2.75,0-6.96-2.55-6.37-7.25.18-2.16,3.03-5.78,5.58-8.33-9.26,7.16-22.9,16.08-26.91,17.15-3.82,1.08-6.66-5.1-2.73-11.27,6.76-10.88,35.98-29.41,47.8-30.78,4.19-.49,7.74,3.63,6.96,6.18-.9,2.75-4.58,4.12-4.48.49-11.2-.69-37.97,16.57-46.3,28.72Z"/>
  <path class="cls-1" d="M396.82,9.06c2.81-1.57,5.75,2.06,2.63,6.37-3.94,5.29-25.13,25.29-55.03,49.6-2.46,2.55-15.52,17.84-13.54,19.8,2.18,1.76,29.22-17.25,36.14-22.25,6.97-5.1,4.46-2.45-4.9,5.98-9.46,8.63-26.67,22.15-31.36,21.76-2.79-.1-6.65-2.94-5.76-7.84,1.86-9.61,53.36-62.83,71.82-73.42Z"/>
  <path class="cls-1" d="M365.5,71.01c-4.74,4.61-6.74,7.94-6.37,9.8,1.56,6.37,27.18-.59,48.03-18.33,6.75-5.78,7.29-4.61-1,2.94-10.12,9.12-31.16,21.56-40.44,23.13-8.39,1.37-16.84-5.29-8.75-16.27,5.76-7.94,24.16-21.86,35.78-24.31,7.57-1.67,8.72,7.45,4.31,12.35-6.21,6.96-24.67,13.72-28.22,13.04-1.17-.2-2.64-1.27-3.34-2.35ZM394.36,56.6c3.57-3.33-1.86-6.18-18.73,6.18-3.08,2.25-5.66,4.31-7.85,6.18,9.33-1.67,22.8-8.82,26.57-12.35Z"/>
  <path class="cls-1" d="M441.44,65.62c2.23.59,1.41,1.57-.78,1.08-3.56-.49-13.34.2-27.2,4.8,1.99,3.04,4.47,5.88,3.64,8.14-2.16,6.18-20.97,14.31-28.02,13.04-7-1.37-5.9-8.14-.53-13.72,4.09-4.31,10.54-7.35,18.53-9.8-1.76-2.55-2.47-5.59.62-9.31,5.5-6.37,20.72-14.21,27.17-13.82,4.01.2,6.72,6.08,2.11,10.98-4.86,5-11.17,3.43-9.56,1.18.63-.98,7.92-3.23,8.24-6.18.31-4.02-18.7,5.39-22.66,10.19-1.65,1.96-1.77,3.82-1.31,5.69,2.18-.59,4.41-1.08,6.78-1.67,6.83-1.57,18.71-2.16,22.96-.59ZM411.43,78.16c1.15-1.76.04-3.53-1.45-5.49-19.84,6.96-22.53,11.76-21.15,13.92,1.68,2.16,19.35-3.33,22.59-8.43Z"/>
</svg>